<svg width="217" height="70" viewBox="0 0 217 70" fill="none" xmlns="http://www.w3.org/2000/svg">
<circle cx="21.3438" cy="18" r="14" stroke="#FFFDFA" stroke-width="8"/>
<path d="M18.5648 48.7625C20.1382 47.2133 22.6695 47.2329 24.2187 48.8062C25.7678 50.3796 26.9171 50.9508 25.3438 52.5L9.80304 68.6112C8.22969 70.1603 5.69837 70.1407 4.14919 68.5674C2.60001 66.994 2.6196 64.4627 4.19295 62.9135L18.5648 48.7625Z" fill="#FFFDFA"/>
<path d="M24.3402 49.0114C22.6862 47.3498 19.9973 47.347 18.3398 49.0051C16.6905 50.6544 15.6692 51.3763 17.3438 53L32.5349 68.6776C34.1255 70.2199 36.6624 70.1905 38.2169 68.6118C39.7688 67.0356 39.7619 64.5037 38.2014 62.9361L24.3402 49.0114Z" fill="#FFFDFA"/>
<path d="M38.3437 38C38.3437 41.866 30.7326 45 21.3437 45C11.9549 45 4.34375 41.866 4.34375 38" stroke="#FFFDFA" stroke-width="8" stroke-linecap="round"/>
<path d="M80.897 0.626953C82.297 0.626953 83.417 1.78695 83.417 3.18695C83.417 4.58695 82.297 5.70695 80.897 5.70695H70.937V26.627C70.937 28.067 69.817 29.187 68.417 29.187C67.017 29.187 65.857 28.067 65.857 26.627V5.70695H55.937C54.537 5.70695 53.377 4.58695 53.377 3.18695C53.377 1.78695 54.537 0.626953 55.937 0.626953H80.897Z" fill="#FFFDFA"/>
<path d="M104.194 6.06695L113.114 25.587C113.674 26.867 113.114 28.387 111.834 28.947C111.514 29.107 111.154 29.187 110.794 29.187C109.834 29.187 108.914 28.627 108.474 27.707L99.5941 8.14695C98.9141 6.66695 97.3941 5.74695 95.7941 5.74695C94.1541 5.74695 92.6741 6.66695 91.9941 8.14695L83.0741 27.707C82.5141 28.987 80.9941 29.547 79.7141 28.947C78.4341 28.387 77.8741 26.867 78.4741 25.587L87.3541 6.06695C88.8741 2.78695 92.1541 0.626953 95.7941 0.626953C99.3941 0.626953 102.714 2.78695 104.194 6.06695ZM95.7941 15.427C98.3141 15.427 100.354 17.467 100.354 19.987C100.354 22.507 98.3141 24.547 95.7941 24.547C93.2741 24.547 91.2341 22.507 91.2341 19.987C91.2341 17.467 93.2741 15.427 95.7941 15.427Z" fill="#FFFDFA"/>
<path d="M128.531 5.70695C122.091 5.70695 118.051 9.26695 118.051 14.907C118.051 20.587 122.091 24.107 128.531 24.107H130.531C133.851 24.107 136.571 23.187 138.411 21.427C139.451 20.467 141.051 20.467 142.011 21.507C142.971 22.507 142.971 24.107 141.931 25.107C139.131 27.787 135.211 29.187 130.531 29.187H128.531C123.811 29.187 119.851 27.747 117.051 25.027C115.731 23.747 114.691 22.187 114.011 20.427C113.331 18.707 112.971 16.867 112.971 14.907C112.971 12.987 113.331 11.107 114.011 9.42695C114.691 7.66695 115.731 6.10695 117.051 4.78695C119.851 2.06695 123.811 0.626953 128.531 0.626953H130.531C135.251 0.626953 139.211 2.06695 142.011 4.78695C143.011 5.78695 143.011 7.38695 142.051 8.38695C141.091 9.38695 139.451 9.42695 138.451 8.42695C136.611 6.66695 133.891 5.70695 130.531 5.70695H128.531Z" fill="#FFFDFA"/>
<path d="M166.811 15.787L174.611 24.987C175.491 26.067 175.371 27.667 174.291 28.587C173.811 28.987 173.251 29.187 172.651 29.187C171.931 29.187 171.211 28.867 170.731 28.267L161.571 17.467H150.251V26.627C150.251 28.067 149.091 29.187 147.691 29.187C146.291 29.187 145.171 28.067 145.171 26.627V3.18695C145.171 1.78695 146.291 0.626953 147.691 0.626953C149.091 0.626953 150.251 1.78695 150.251 3.18695V12.387H160.091C162.531 12.387 164.851 11.427 166.571 9.66695C168.331 7.94695 169.251 5.62695 169.251 3.18695C169.251 1.78695 170.411 0.626953 171.811 0.626953C173.211 0.626953 174.371 1.78695 174.371 3.18695C174.371 5.10695 173.971 6.98695 173.211 8.74695C172.491 10.427 171.491 11.947 170.171 13.267C169.171 14.267 168.051 15.107 166.811 15.787Z" fill="#FFFDFA"/>
<path d="M203.434 0.906954C204.714 1.54695 205.194 3.06695 204.554 4.34695L200.994 11.427C199.914 13.467 198.354 15.187 196.354 16.427C195.114 17.187 193.794 17.707 192.354 17.987V26.627C192.354 28.067 191.234 29.187 189.834 29.187C188.434 29.187 187.274 28.067 187.274 26.627V17.987C185.874 17.707 184.514 17.187 183.274 16.427C181.314 15.187 179.714 13.467 178.674 11.427L175.074 4.34695C174.434 3.06695 174.954 1.54695 176.194 0.906954C177.434 0.266953 178.994 0.786953 179.634 2.02695L183.194 9.10695C184.474 11.627 187.034 13.187 189.834 13.187C192.634 13.187 195.154 11.627 196.434 9.10695L200.034 2.02695C200.674 0.786953 202.194 0.266953 203.434 0.906954Z" fill="#FFFDFA"/>
<path d="M76.617 52.387C81.257 52.387 85.017 56.147 85.017 60.787C85.017 65.427 81.257 69.187 76.617 69.187H59.217C57.817 69.187 56.657 68.067 56.657 66.627C56.657 65.227 57.817 64.107 59.217 64.107H76.617C78.457 64.107 79.937 62.627 79.937 60.787C79.937 58.947 78.457 57.467 76.617 57.467H63.377C58.737 57.467 54.977 53.667 54.977 49.067C54.977 44.427 58.737 40.627 63.377 40.627H80.777C82.177 40.627 83.337 41.787 83.337 43.187C83.337 44.587 82.177 45.707 80.777 45.707H63.377C61.537 45.707 60.057 47.227 60.057 49.067C60.057 50.867 61.537 52.387 63.377 52.387H76.617Z" fill="#FFFDFA"/>
<path d="M114.459 44.787C115.779 46.107 116.819 47.667 117.499 49.427C118.179 51.107 118.539 52.987 118.539 54.907C118.539 56.867 118.179 58.707 117.499 60.427C116.819 62.187 115.779 63.747 114.459 65.027C111.659 67.747 107.699 69.187 102.979 69.187H100.979C96.2591 69.187 92.2991 67.747 89.4991 65.027C88.1791 63.747 87.1391 62.187 86.4191 60.427C85.7791 58.707 85.4191 56.867 85.4191 54.907C85.4191 52.987 85.7791 51.107 86.4191 49.427C87.1391 47.667 88.1791 46.107 89.4991 44.787C92.2991 42.067 96.2591 40.627 100.979 40.627H102.979C107.699 40.627 111.659 42.067 114.459 44.787ZM102.979 64.107C109.419 64.107 113.459 60.587 113.459 54.907C113.459 49.267 109.419 45.707 102.979 45.707H100.979C94.4991 45.707 90.4991 49.267 90.4991 54.907C90.4991 60.587 94.4991 64.107 100.979 64.107H102.979Z" fill="#FFFDFA"/>
<path d="M148.069 40.627C149.469 40.627 150.589 41.787 150.589 43.187V54.907C150.589 56.827 150.309 58.667 149.709 60.307C149.109 62.067 148.189 63.627 146.989 64.947C144.429 67.707 140.789 69.187 136.469 69.187H134.669C130.389 69.187 126.749 67.707 124.189 64.947C122.989 63.627 122.069 62.067 121.469 60.307C120.869 58.667 120.549 56.827 120.549 54.907V43.187C120.549 41.787 121.709 40.627 123.109 40.627C124.509 40.627 125.669 41.787 125.669 43.187V54.907C125.669 59.347 128.029 64.107 134.669 64.107H136.469C143.149 64.107 145.509 59.347 145.509 54.907V43.187C145.509 41.787 146.669 40.627 148.069 40.627Z" fill="#FFFDFA"/>
<path d="M180.894 40.627C182.294 40.627 183.414 41.787 183.414 43.187V66.627C183.414 67.667 182.814 68.587 181.894 68.987C181.574 69.107 181.214 69.187 180.894 69.187C180.254 69.187 179.614 68.947 179.134 68.507L158.454 49.067V66.627C158.454 68.067 157.334 69.187 155.934 69.187C154.534 69.187 153.374 68.067 153.374 66.627V43.187C153.374 42.187 153.974 41.267 154.934 40.867C155.854 40.467 156.934 40.627 157.654 41.347L178.334 60.747V43.187C178.334 41.787 179.454 40.627 180.894 40.627Z" fill="#FFFDFA"/>
<path d="M212.039 44.827C213.359 46.147 214.399 47.667 215.119 49.347C215.839 51.107 216.239 52.987 216.239 54.907C216.239 56.827 215.839 58.707 215.119 60.467C214.399 62.187 213.359 63.707 212.039 65.027C210.759 66.307 209.199 67.347 207.519 68.067C205.759 68.827 203.879 69.187 201.959 69.187H188.719C187.319 69.187 186.199 68.067 186.199 66.627C186.199 65.227 187.319 64.107 188.719 64.107H201.959C207.039 64.107 211.159 59.987 211.159 54.907C211.159 49.867 207.039 45.707 201.959 45.707H191.279V54.907C191.279 56.307 190.159 57.467 188.719 57.467C187.319 57.467 186.199 56.307 186.199 54.907V43.187C186.199 41.787 187.319 40.627 188.719 40.627H201.959C203.879 40.627 205.759 41.027 207.519 41.747C209.199 42.467 210.759 43.507 212.039 44.827Z" fill="#FFFDFA"/>
</svg>
