<svg width="24" height="24" viewBox="0 0 24 24" fill="none" xmlns="http://www.w3.org/2000/svg">
<mask id="mask0_809_43" style="mask-type:alpha" maskUnits="userSpaceOnUse" x="0" y="0" width="24" height="24">
<rect width="24" height="24" fill="#D9D9D9"/>
</mask>
<g mask="url(#mask0_809_43)">
<path d="M2.50014 9.48081V5.53851C2.50014 5.03339 2.67514 4.60583 3.02514 4.25583C3.37514 3.90584 3.80271 3.73083 4.30784 3.73083H19.6924C20.1975 3.73083 20.6251 3.90584 20.9751 4.25583C21.3251 4.60583 21.5001 5.03339 21.5001 5.53851V9.48081H20.0001V5.53851C20.0001 5.46158 19.9681 5.39106 19.904 5.32696C19.8399 5.26284 19.7693 5.23079 19.6924 5.23079H4.30784C4.23091 5.23079 4.16038 5.26284 4.09627 5.32696C4.03217 5.39106 4.00012 5.46158 4.00012 5.53851V9.48081H2.50014ZM4.30784 17.7308C3.80271 17.7308 3.37514 17.5558 3.02514 17.2058C2.67514 16.8558 2.50014 16.4282 2.50014 15.9231V10.9808H4.00012V15.9231C4.00012 16 4.03217 16.0705 4.09627 16.1346C4.16038 16.1987 4.23091 16.2308 4.30784 16.2308H19.6924C19.7693 16.2308 19.8399 16.1987 19.904 16.1346C19.9681 16.0705 20.0001 16 20.0001 15.9231V10.9808H21.5001V15.9231C21.5001 16.4282 21.3251 16.8558 20.9751 17.2058C20.6251 17.5558 20.1975 17.7308 19.6924 17.7308H4.30784ZM1.38477 20.2307V18.7308H22.6155V20.2307H1.38477ZM2.50014 10.9808V9.48081H8.00012C8.13857 9.48081 8.27029 9.51799 8.39529 9.59236C8.52029 9.66671 8.61484 9.76799 8.67894 9.89619L10.0751 12.6731L13.3521 6.86541C13.4162 6.74748 13.5056 6.6571 13.6203 6.59429C13.7351 6.53145 13.8617 6.50004 14.0001 6.50004C14.1386 6.50004 14.2703 6.53145 14.3953 6.59429C14.5203 6.6571 14.6148 6.75774 14.6789 6.89619L15.9713 9.48081H21.5001V10.9808H15.5963C15.4322 10.9808 15.2748 10.9382 15.1242 10.8529C14.9735 10.7676 14.8597 10.643 14.7828 10.4789L13.9501 8.80769L10.6636 14.5962C10.5995 14.7244 10.5049 14.8205 10.3799 14.8846C10.2549 14.9487 10.1232 14.9808 9.98474 14.9808C9.84627 14.9808 9.71711 14.9436 9.59724 14.8692C9.47737 14.7949 9.38539 14.6936 9.32129 14.5654L7.52897 10.9808H2.50014Z" fill="white"/>
</g>
</svg>
