<svg width="25" height="24" viewBox="0 0 25 24" fill="none" xmlns="http://www.w3.org/2000/svg">
<path d="M4.25 6C4.25 5.40326 4.48705 4.83097 4.90901 4.40901C5.33097 3.98705 5.90326 3.75 6.5 3.75H8.75C9.34674 3.75 9.91903 3.98705 10.341 4.40901C10.7629 4.83097 11 5.40326 11 6V8.25C11 8.84674 10.7629 9.41903 10.341 9.84099C9.91903 10.2629 9.34674 10.5 8.75 10.5H6.5C5.90326 10.5 5.33097 10.2629 4.90901 9.84099C4.48705 9.41903 4.25 8.84674 4.25 8.25V6ZM4.25 15.75C4.25 15.1533 4.48705 14.581 4.90901 14.159C5.33097 13.7371 5.90326 13.5 6.5 13.5H8.75C9.34674 13.5 9.91903 13.7371 10.341 14.159C10.7629 14.581 11 15.1533 11 15.75V18C11 18.5967 10.7629 19.169 10.341 19.591C9.91903 20.0129 9.34674 20.25 8.75 20.25H6.5C5.90326 20.25 5.33097 20.0129 4.90901 19.591C4.48705 19.169 4.25 18.5967 4.25 18V15.75ZM14 6C14 5.40326 14.2371 4.83097 14.659 4.40901C15.081 3.98705 15.6533 3.75 16.25 3.75H18.5C19.0967 3.75 19.669 3.98705 20.091 4.40901C20.5129 4.83097 20.75 5.40326 20.75 6V8.25C20.75 8.84674 20.5129 9.41903 20.091 9.84099C19.669 10.2629 19.0967 10.5 18.5 10.5H16.25C15.6533 10.5 15.081 10.2629 14.659 9.84099C14.2371 9.41903 14 8.84674 14 8.25V6ZM14 15.75C14 15.1533 14.2371 14.581 14.659 14.159C15.081 13.7371 15.6533 13.5 16.25 13.5H18.5C19.0967 13.5 19.669 13.7371 20.091 14.159C20.5129 14.581 20.75 15.1533 20.75 15.75V18C20.75 18.5967 20.5129 19.169 20.091 19.591C19.669 20.0129 19.0967 20.25 18.5 20.25H16.25C15.6533 20.25 15.081 20.0129 14.659 19.591C14.2371 19.169 14 18.5967 14 18V15.75Z" stroke="white" stroke-width="1.5" stroke-linecap="round" stroke-linejoin="round"/>
</svg>
