<svg width="25" height="25" viewBox="0 0 25 25" fill="none" xmlns="http://www.w3.org/2000/svg">
<mask id="mask0_808_7" style="mask-type:alpha" maskUnits="userSpaceOnUse" x="0" y="0" width="25" height="25">
<rect x="0.538574" y="0.615356" width="24" height="24" fill="#D9D9D9"/>
</mask>
<g mask="url(#mask0_808_7)">
<path d="M12.0886 20.2307L16.1077 11.0961H13.0885V4.94228L9.06937 14.0961H12.0886V20.2307ZM12.5402 22.1153C11.2263 22.1153 9.99126 21.866 8.83512 21.3673C7.67897 20.8686 6.67329 20.1919 5.81807 19.3371C4.96284 18.4822 4.28578 17.477 3.7869 16.3213C3.28802 15.1657 3.03857 13.9309 3.03857 12.617C3.03857 11.3031 3.28791 10.068 3.78657 8.91191C4.28524 7.75576 4.96199 6.75007 5.81682 5.89486C6.67167 5.03962 7.67692 4.36257 8.83255 3.86368C9.98817 3.3648 11.2229 3.11536 12.5369 3.11536C13.8508 3.11536 15.0858 3.36469 16.242 3.86336C17.3981 4.36202 18.4038 5.03877 19.259 5.89361C20.1143 6.74846 20.7913 7.7537 21.2902 8.90933C21.7891 10.0649 22.0385 11.2997 22.0385 12.6137C22.0385 13.9276 21.7892 15.1626 21.2905 16.3188C20.7919 17.4749 20.1151 18.4806 19.2603 19.3358C18.4054 20.191 17.4002 20.8681 16.2446 21.367C15.0889 21.8659 13.8542 22.1153 12.5402 22.1153ZM12.5385 20.6153C14.7552 20.6153 16.6427 19.8362 18.2011 18.2778C19.7594 16.7195 20.5386 14.832 20.5386 12.6153C20.5386 10.3987 19.7594 8.51117 18.2011 6.95283C16.6427 5.3945 14.7552 4.61533 12.5385 4.61533C10.3219 4.61533 8.43438 5.3945 6.87605 6.95283C5.31772 8.51117 4.53855 10.3987 4.53855 12.6153C4.53855 14.832 5.31772 16.7195 6.87605 18.2778C8.43438 19.8362 10.3219 20.6153 12.5385 20.6153Z" fill="white"/>
</g>
</svg>
