<svg width="24" height="24" viewBox="0 0 24 24" fill="none" xmlns="http://www.w3.org/2000/svg">
<mask id="mask0_808_19" style="mask-type:alpha" maskUnits="userSpaceOnUse" x="0" y="0" width="24" height="24">
<rect width="24" height="24" fill="#D9D9D9"/>
</mask>
<g mask="url(#mask0_808_19)">
<path d="M7 18.0615C6.23718 18.0615 5.58815 17.7939 5.0529 17.2586C4.51765 16.7234 4.25003 16.0743 4.25003 15.3115V7.17696H5.74997V15.3115C5.74997 15.6589 5.87145 15.9541 6.1144 16.1971C6.35737 16.44 6.65257 16.5615 7 16.5615C7.34743 16.5615 7.64263 16.44 7.8856 16.1971C8.12855 15.9541 8.25003 15.6589 8.25003 15.3115V9.92694C8.25003 9.16412 8.51765 8.51509 9.0529 7.97984C9.58815 7.44459 10.2372 7.17696 11 7.17696C11.7628 7.17696 12.4118 7.44459 12.9471 7.97984C13.4823 8.51509 13.75 9.16412 13.75 9.92694V15.3115C13.75 15.6589 13.8714 15.9541 14.1144 16.1971C14.3574 16.44 14.6526 16.5615 15 16.5615C15.3474 16.5615 15.6426 16.44 15.8856 16.1971C16.1286 15.9541 16.25 15.6589 16.25 15.3115V8.92694C16.25 8.16412 16.5177 7.51509 17.0529 6.97984C17.5882 6.44459 18.2372 6.17696 19 6.17696H20.7808L19.3558 4.75194L20.4 3.68274L23.6442 6.92694L20.4 10.1461L19.3558 9.07694L20.7904 7.67692H19C18.6526 7.67692 18.3574 7.79839 18.1144 8.04134C17.8715 8.28429 17.75 8.57949 17.75 8.92694V15.3115C17.75 16.0743 17.4823 16.7234 16.9471 17.2586C16.4118 17.7939 15.7628 18.0615 15 18.0615C14.2372 18.0615 13.5882 17.7939 13.0529 17.2586C12.5177 16.7234 12.25 16.0743 12.25 15.3115V9.92694C12.25 9.57949 12.1286 9.28429 11.8856 9.04134C11.6426 8.79839 11.3474 8.67692 11 8.67692C10.6526 8.67692 10.3574 8.79839 10.1144 9.04134C9.87145 9.28429 9.74998 9.57949 9.74998 9.92694V15.3115C9.74998 16.0743 9.48235 16.7234 8.9471 17.2586C8.41185 17.7939 7.76282 18.0615 7 18.0615ZM3.30773 21.1C2.80901 21.1 2.38305 20.9234 2.02985 20.5701C1.67662 20.2169 1.5 19.791 1.5 19.2923V11.8692H22.5V19.2923C22.5 19.791 22.3234 20.2169 21.9702 20.5701C21.617 20.9234 21.191 21.1 20.6923 21.1H3.30773ZM3.30773 19.6H20.6923C20.782 19.6 20.8558 19.5711 20.9135 19.5134C20.9712 19.4557 21 19.382 21 19.2923V13.3692H3V19.2923C3 19.382 3.02885 19.4557 3.08655 19.5134C3.14425 19.5711 3.21798 19.6 3.30773 19.6Z" fill="white"/>
</g>
</svg>
