<svg width="19" height="19" viewBox="0 0 19 19" fill="none" xmlns="http://www.w3.org/2000/svg">
<path d="M9.48075 19C8.1846 19 6.96024 18.7503 5.80768 18.2509C4.65513 17.7516 3.64872 17.0718 2.78845 16.2115C1.9282 15.3512 1.2484 14.3432 0.74905 13.1875C0.249683 12.0317 0 10.8025 0 9.49998C0 8.18074 0.256417 6.94325 0.76925 5.7875C1.28207 4.63173 1.97853 3.62628 2.85865 2.77115C3.73878 1.91603 4.76827 1.2404 5.9471 0.744251C7.12595 0.248084 8.38332 0 9.7192 0C10.9692 0 12.1538 0.213142 13.273 0.639426C14.3923 1.06571 15.3753 1.65578 16.2221 2.40963C17.0689 3.16346 17.7435 4.05928 18.2461 5.0971C18.7487 6.13492 19 7.26023 19 8.47305C19 10.2038 18.4855 11.5576 17.4567 12.5346C16.4278 13.5115 15.1089 14 13.5 14H11.6885C11.4038 14 11.1762 14.0929 11.0057 14.2788C10.8352 14.4647 10.75 14.6846 10.75 14.9385C10.75 15.2474 10.875 15.5686 11.125 15.9019C11.375 16.2352 11.5 16.6179 11.5 17.05C11.5 17.7102 11.3173 18.2003 10.9519 18.5202C10.5865 18.84 10.0961 19 9.48075 19ZM3.99998 10.25C4.35638 10.25 4.65381 10.1307 4.89227 9.89228C5.13072 9.65381 5.24995 9.35638 5.24995 8.99998C5.24995 8.64358 5.13072 8.34614 4.89227 8.10768C4.65381 7.86923 4.35638 7.75 3.99998 7.75C3.64358 7.75 3.34614 7.86923 3.10768 8.10768C2.86923 8.34614 2.75 8.64358 2.75 8.99998C2.75 9.35638 2.86923 9.65381 3.10768 9.89228C3.34614 10.1307 3.64358 10.25 3.99998 10.25ZM6.99998 6.24995C7.35638 6.24995 7.65381 6.13073 7.89228 5.89228C8.13073 5.65381 8.24995 5.35638 8.24995 4.99998C8.24995 4.64358 8.13073 4.34614 7.89228 4.10768C7.65381 3.86923 7.35638 3.75 6.99998 3.75C6.64358 3.75 6.34614 3.86923 6.10768 4.10768C5.86923 4.34614 5.75 4.64358 5.75 4.99998C5.75 5.35638 5.86923 5.65381 6.10768 5.89228C6.34614 6.13073 6.64358 6.24995 6.99998 6.24995ZM12 6.24995C12.3564 6.24995 12.6538 6.13073 12.8923 5.89228C13.1307 5.65381 13.25 5.35638 13.25 4.99998C13.25 4.64358 13.1307 4.34614 12.8923 4.10768C12.6538 3.86923 12.3564 3.75 12 3.75C11.6436 3.75 11.3461 3.86923 11.1077 4.10768C10.8692 4.34614 10.75 4.64358 10.75 4.99998C10.75 5.35638 10.8692 5.65381 11.1077 5.89228C11.3461 6.13073 11.6436 6.24995 12 6.24995ZM15 10.25C15.3564 10.25 15.6538 10.1307 15.8923 9.89228C16.1307 9.65381 16.25 9.35638 16.25 8.99998C16.25 8.64358 16.1307 8.34614 15.8923 8.10768C15.6538 7.86923 15.3564 7.75 15 7.75C14.6436 7.75 14.3461 7.86923 14.1077 8.10768C13.8692 8.34614 13.75 8.64358 13.75 8.99998C13.75 9.35638 13.8692 9.65381 14.1077 9.89228C14.3461 10.1307 14.6436 10.25 15 10.25Z" fill="#FFFDFA"/>
</svg>
