<svg width="24" height="24" viewBox="0 0 24 24" fill="none" xmlns="http://www.w3.org/2000/svg">
<mask id="mask0_808_25" style="mask-type:alpha" maskUnits="userSpaceOnUse" x="0" y="0" width="24" height="24">
<rect width="24" height="24" fill="#D9D9D9"/>
</mask>
<g mask="url(#mask0_808_25)">
<path d="M11.25 13V3.4231H12.75V13H11.25ZM12 20.5C10.8307 20.5 9.73075 20.2769 8.7 19.8307C7.66923 19.3846 6.76795 18.7756 5.99615 18.0038C5.22437 17.232 4.6154 16.3307 4.16925 15.3C3.72308 14.2692 3.5 13.1692 3.5 12C3.5 10.7372 3.76539 9.54455 4.29618 8.42212C4.82694 7.29969 5.56668 6.33078 6.51538 5.5154L7.5596 6.55962C6.75318 7.21987 6.12497 8.025 5.67497 8.975C5.22497 9.925 4.99997 10.9333 4.99997 12C4.99997 13.9333 5.68331 15.5833 7.04998 16.95C8.41664 18.3167 10.0666 19 12 19C13.95 19 15.6041 18.3167 16.9625 16.95C18.3208 15.5833 19 13.9333 19 12C19 10.9333 18.7791 9.925 18.3375 8.975C17.8958 8.025 17.2634 7.21987 16.4404 6.55962L17.4846 5.5154C18.4397 6.33078 19.181 7.29969 19.7086 8.42212C20.2362 9.54455 20.5 10.7372 20.5 12C20.5 13.1692 20.2769 14.2692 19.8307 15.3C19.3846 16.3307 18.7782 17.232 18.0115 18.0038C17.2448 18.7756 16.3461 19.3846 15.3154 19.8307C14.2846 20.2769 13.1795 20.5 12 20.5Z" fill="white"/>
</g>
</svg>
