<svg width="24" height="24" viewBox="0 0 24 24" fill="none" xmlns="http://www.w3.org/2000/svg">
<mask id="mask0_808_37" style="mask-type:alpha" maskUnits="userSpaceOnUse" x="0" y="0" width="24" height="24">
<rect width="24" height="24" fill="#D9D9D9"/>
</mask>
<g mask="url(#mask0_808_37)">
<path d="M6.79995 19.6539C6.36405 19.6539 5.99675 19.5109 5.69805 19.225C5.39934 18.9391 5.24998 18.5782 5.24998 18.1423C5.24998 17.8372 5.33715 17.5593 5.5115 17.3087C5.68587 17.0581 5.91407 16.8757 6.1961 16.7616L10.25 15.1539V12.1538C9.20253 13.3833 8.13265 14.2821 7.04035 14.85C5.94805 15.418 4.71024 15.7372 3.3269 15.8077V14.2981C4.40254 14.2661 5.39484 14.0135 6.3038 13.5404C7.21279 13.0674 8.04228 12.3975 8.79228 11.5308L10.1423 9.95006C10.3166 9.74877 10.5211 9.59461 10.7557 9.48756C10.9903 9.38051 11.2384 9.32698 11.5 9.32698H12.5C12.7615 9.32698 13.0096 9.38051 13.2442 9.48756C13.4788 9.59461 13.6833 9.74877 13.8576 9.95006L15.2076 11.5308C15.9576 12.3975 16.7871 13.0674 17.6961 13.5404C18.6051 14.0135 19.5974 14.2661 20.673 14.2981V15.8077C19.2897 15.7372 18.0519 15.418 16.9596 14.85C15.8673 14.2821 14.7974 13.3833 13.7499 12.1538V15.1539L17.8038 16.7616C18.0858 16.8757 18.314 17.0581 18.4884 17.3087C18.6628 17.5593 18.7499 17.8372 18.7499 18.1423C18.7499 18.5782 18.6006 18.9391 18.3019 19.225C18.0032 19.5109 17.6359 19.6539 17.2 19.6539H9.99995V19.3269C9.99995 18.9128 10.1272 18.5785 10.3817 18.3241C10.6362 18.0696 10.9705 17.9423 11.3846 17.9423H14.5C14.65 17.9423 14.7708 17.8965 14.8625 17.8048C14.9541 17.7132 15 17.5923 15 17.4423C15 17.2923 14.9541 17.1715 14.8625 17.0798C14.7708 16.9882 14.65 16.9423 14.5 16.9423H11.3846C10.7038 16.9423 10.1362 17.1696 9.68168 17.6241C9.2272 18.0785 8.99995 18.6462 8.99995 19.3269V19.6539H6.79995ZM12 8.13466C11.4884 8.13466 11.0528 7.95485 10.6932 7.59523C10.3336 7.23562 10.1538 6.80004 10.1538 6.28851C10.1538 5.77698 10.3336 5.3414 10.6932 4.98178C11.0528 4.62218 11.4884 4.44238 12 4.44238C12.5115 4.44238 12.9471 4.62218 13.3067 4.98178C13.6663 5.3414 13.8461 5.77698 13.8461 6.28851C13.8461 6.80004 13.6663 7.23562 13.3067 7.59523C12.9471 7.95485 12.5115 8.13466 12 8.13466Z" fill="white"/>
</g>
</svg>
