<svg width="25" height="25" viewBox="0 0 25 25" fill="none" xmlns="http://www.w3.org/2000/svg">
<mask id="mask0_808_13" style="mask-type:alpha" maskUnits="userSpaceOnUse" x="0" y="0" width="25" height="25">
<rect x="0.693115" y="0.594971" width="24" height="24" fill="#D9D9D9"/>
</mask>
<g mask="url(#mask0_808_13)">
<path d="M13.2315 11.3449V9.84497H18.1545V11.3449H13.2315ZM13.2315 7.46032V5.96035H21.1545V7.46032H13.2315ZM8.76997 21.0949C7.52127 21.0949 6.4591 20.6571 5.58347 19.7815C4.70784 18.9058 4.27002 17.8436 4.27002 16.5949C4.27002 15.8462 4.44502 15.1469 4.79502 14.4969C5.14502 13.8469 5.63669 13.3027 6.27002 12.8642V6.59495C6.27002 5.89625 6.512 5.3049 6.99597 4.82092C7.47994 4.33695 8.07127 4.09497 8.76997 4.09497C9.46869 4.09497 10.06 4.33695 10.544 4.82092C11.028 5.3049 11.2699 5.89625 11.2699 6.59495V12.8642C11.9033 13.3027 12.3949 13.8469 12.7449 14.4969C13.0949 15.1469 13.2699 15.8462 13.2699 16.5949C13.2699 17.8436 12.8321 18.9058 11.9565 19.7815C11.0809 20.6571 10.0187 21.0949 8.76997 21.0949ZM5.76997 16.5949H11.77C11.77 16.1052 11.6514 15.6408 11.4142 15.2017C11.177 14.7626 10.8379 14.3821 10.3969 14.0603L9.76997 13.5949V6.59495C9.76997 6.31161 9.67414 6.07411 9.48247 5.88245C9.2908 5.69078 9.0533 5.59495 8.76997 5.59495C8.48664 5.59495 8.24914 5.69078 8.05747 5.88245C7.8658 6.07411 7.76997 6.31161 7.76997 6.59495V13.5949L7.14307 14.0603C6.70204 14.3821 6.36293 14.7626 6.12574 15.2017C5.88856 15.6408 5.76997 16.1052 5.76997 16.5949Z" fill="white"/>
</g>
</svg>
